<svg width="512" height="512" xmlns="http://www.w3.org/2000/svg"><defs><radialGradient id="rg" cx="50%" cy="75%" r="50%" fx="50%" fy="55%"><stop offset="0%" stop-color="#bbb"/><stop offset="100%" stop-color="#999"/></radialGradient><linearGradient id="lg" x1="0%" y1="0%" x2="0%" y2="100%" spreadMethod="reflect"><stop offset="0%" stop-color="#999"/><stop offset="50%" stop-color="#bbb"/><stop offset="100%" stop-color="#bbb"/><stop offset="100%" stop-color="#ccc"/></linearGradient></defs><filter id="l"><feOffset dy="4"/><feGaussianBlur stdDeviation="2" result="b"/><feComposite operator="out" in="SourceGraphic" in2="b" result="inverse"/><feFlood flood-color="#fff" flood-opacity=".4" result="c"/><feComposite operator="in" in="c" in2="inverse" result="l"/><feComposite in="s" in2="SourceGraphic"/></filter><filter id="s"><feOffset dy="-4"/><feGaussianBlur stdDeviation="2" result="b"/><feComposite operator="out" in="SourceGraphic" in2="b" result="inverse"/><feFlood flood-color="#000" flood-opacity=".8" result="c"/><feComposite operator="in" in="c" in2="inverse" result="s"/><feComposite in="s" in2="SourceGraphic"/></filter><rect x="8" y="4" width="496" height="496" rx="240" ry="240" fill="url(#rg)" style="filter:url(#l)url(#s)drop-shadow(0em .5em .25em #0008)"/><path d="M194 189.001h82.75a519.889 519.889 0 0010.787-.106q8.447-.176 15.088-.644a580.245 580.245 0 0012.744-1.036 473.133 473.133 0 007.131-.714q9.25-1 19-1.75 7.465-.575 17.128-.709a439.978 439.978 0 016.122-.041q3.75 0 6.875 1.125a14.698 14.698 0 013.85 2.108 19.023 19.023 0 012.025 1.767v190.75a274.74 274.74 0 00.176 10.107q.183 4.962.557 9.295a136.175 136.175 0 00.517 4.973 220.422 220.422 0 001.008 7.224q.617 3.928 1.327 7.371a119.996 119.996 0 00.665 3.03h36l2.5 22.5q-13 3.25-29.5 4.625a382.638 382.638 0 01-17.437 1.031 517.38 517.38 0 01-19.313.344q-5.5 0-11.125-.875a34.28 34.28 0 01-6.592-1.68 29.114 29.114 0 01-3.533-1.57q-4.5-2.375-7.375-6.5-2.516-3.61-2.83-9.229a29.474 29.474 0 01-.045-1.646q0-12.25.875-24.25a306.826 306.826 0 00.598-11.218q.277-7.673.277-16.532v-137.5q0-5-.375-10.5t-1.375-9.75H194v168.5q0 7.476.289 13.22a141.511 141.511 0 00.336 5.03 25.31 25.31 0 001.09 5.601 18.479 18.479 0 003.41 6.274 18.764 18.764 0 004.225 3.662q2.036 1.319 4.613 2.391a40.697 40.697 0 003.287 1.197q7.452 2.371 20.413 4.028a259.061 259.061 0 002.837.347l2 21a2062.539 2062.539 0 00-19.312-1.344 1514.995 1514.995 0 00-17.438-1.031q-16.5-.875-32.5-.875-15.25 0-30.625.75t-32.875 2.5v-21a269.992 269.992 0 006.477-.782q6.98-.933 11.858-2.031a66.359 66.359 0 002.79-.687 38.499 38.499 0 004.231-1.397q4.238-1.697 6.644-4.103a13.999 13.999 0 003.674-6.605 18.633 18.633 0 00.451-2.52q.425-3.824.561-8.975a195.52 195.52 0 00.064-5.15v-178H84v-18.75a19.227 19.227 0 014.722-5.843 18.055 18.055 0 015.403-3.032 36.282 36.282 0 015.94-1.538q2.967-.523 6.399-.72a75.143 75.143 0 014.286-.117h29.75v-23a190.846 190.846 0 011.258-22.546q1.84-15.435 6.367-27.829a97.918 97.918 0 019.558-19.501 78.693 78.693 0 0112.067-14.624 83.852 83.852 0 0130.097-18.164 98.276 98.276 0 013.653-1.211q19.75-6.125 44-6.125a165.443 165.443 0 0113.487.516q6.317.518 11.741 1.556a76.246 76.246 0 017.897 1.928q10.69 3.257 18.477 7.178a73.203 73.203 0 013.398 1.822v56h-24.25a124.029 124.029 0 00-2.806-8.746q-2.171-5.954-4.694-10.629a59.88 59.88 0 00-3.886-6.293q-2.199-3.089-4.595-5.473a34.803 34.803 0 00-.894-.859 35.858 35.858 0 00-5.963-4.514 29.488 29.488 0 00-4.912-2.361q-5.75-2.125-12-2.125a68.724 68.724 0 00-8.99.557q-6.162.814-11.135 2.818a29.12 29.12 0 00-12.716 10.018 35.871 35.871 0 00-1.034 1.482q-5.375 8.125-8 21.625a124.103 124.103 0 00-1.587 10.983q-.584 5.695-.839 12.265a277.155 277.155 0 00-.199 10.752v34.5zm122.25-93.75a39.474 39.474 0 001.129 9.57 34.841 34.841 0 001.371 4.305q2.5 6.375 7.125 11t10.875 7.125a35.191 35.191 0 0010.078 2.343 42.376 42.376 0 003.672.157 39.165 39.165 0 008.834-.965 33.528 33.528 0 004.916-1.535q6.25-2.5 10.75-7.125a34.013 34.013 0 006.703-10.015 39.015 39.015 0 00.422-.985 35.321 35.321 0 002.561-11.559 41.422 41.422 0 00.064-2.316q0-8-2.625-14.5a34.439 34.439 0 00-4.133-7.508A30.093 30.093 0 00375 69.751a31.494 31.494 0 00-10.361-6.842 35.931 35.931 0 00-.389-.158 35.191 35.191 0 00-10.078-2.344 42.376 42.376 0 00-3.672-.156 38.789 38.789 0 00-11.7 1.69 31.724 31.724 0 00-12.925 7.81 31.697 31.697 0 00-8.936 17.402 45.536 45.536 0 00-.689 8.098z" fill="url(#lg)" transform="matrix(.95 0 0 .95 12 -4)" filter="drop-shadow(0 -.5em .25em #fff8) drop-shadow(0 .5em .25em #0008)"/><path d="M196.3 175.55h78.612a493.895 493.895 0 0010.248-.1q8.025-.167 14.334-.612a551.233 551.233 0 0012.107-.984 449.476 449.476 0 006.774-.678q8.788-.95 18.05-1.663 7.092-.546 16.272-.673a417.98 417.98 0 015.816-.039q3.562 0 6.53 1.069a13.963 13.963 0 013.658 2.002 18.072 18.072 0 011.924 1.679v181.213a261.003 261.003 0 00.167 9.601q.174 4.714.53 8.83a129.366 129.366 0 00.49 4.725 209.4 209.4 0 00.958 6.863q.586 3.731 1.26 7.002a113.996 113.996 0 00.633 2.878h34.2l2.375 21.375q-12.35 3.088-28.025 4.394a363.506 363.506 0 01-16.566.98 491.511 491.511 0 01-18.347.327q-5.225 0-10.569-.832a32.566 32.566 0 01-6.262-1.596 27.658 27.658 0 01-3.357-1.491q-4.275-2.256-7.006-6.175-2.39-3.43-2.688-8.768a28 28 0 01-.043-1.563q0-11.638.831-23.038a291.485 291.485 0 00.568-10.657q.263-7.29.263-15.706V223.288q0-4.75-.356-9.975-.356-5.224-1.306-9.262H196.3v160.075q0 7.102.275 12.559a134.435 134.435 0 00.319 4.779 24.044 24.044 0 001.035 5.32 17.555 17.555 0 003.24 5.96 17.826 17.826 0 004.014 3.48q1.934 1.253 4.382 2.271a38.662 38.662 0 003.123 1.137q7.079 2.253 19.392 3.827a246.108 246.108 0 002.695.33l1.9 19.95a1959.412 1959.412 0 00-18.346-1.277 1439.245 1439.245 0 00-16.566-.98q-15.675-.831-30.875-.831-14.488 0-29.094.713-14.606.712-31.231 2.375v-19.95a256.492 256.492 0 006.153-.743q6.63-.887 11.265-1.93a63.041 63.041 0 002.65-.652 36.574 36.574 0 004.02-1.328q4.026-1.612 6.312-3.897a13.299 13.299 0 003.49-6.275 17.701 17.701 0 00.428-2.394q.404-3.633.533-8.526a185.744 185.744 0 00.061-4.893v-169.1H91.8v-17.812a18.266 18.266 0 014.486-5.551 17.152 17.152 0 015.133-2.88 34.468 34.468 0 015.643-1.462q2.818-.497 6.079-.684a71.386 71.386 0 014.071-.111h28.263v-21.85a181.304 181.304 0 011.195-21.419q1.748-14.663 6.049-26.437a93.022 93.022 0 019.08-18.526 74.758 74.758 0 0111.463-13.893 79.66 79.66 0 0128.593-17.256 93.362 93.362 0 013.47-1.15q18.762-5.819 41.8-5.819a157.17 157.17 0 0112.813.49q6 .492 11.154 1.478a72.434 72.434 0 017.502 1.832q10.155 3.094 17.553 6.82a69.543 69.543 0 013.228 1.73v53.2h-23.038a117.828 117.828 0 00-2.665-8.309q-2.063-5.656-4.46-10.097a56.886 56.886 0 00-3.691-5.979q-2.09-2.934-4.365-5.199a33.063 33.063 0 00-.85-.816 34.065 34.065 0 00-5.665-4.288 28.014 28.014 0 00-4.666-2.243q-5.463-2.019-11.4-2.019a65.288 65.288 0 00-8.54.53q-5.854.772-10.579 2.676a27.664 27.664 0 00-12.08 9.517 34.077 34.077 0 00-.982 1.408q-5.107 7.719-7.6 20.544a117.898 117.898 0 00-1.508 10.434q-.555 5.41-.797 11.652a263.297 263.297 0 00-.189 10.214zm116.138-89.062a37.5 37.5 0 001.072 9.092 33.099 33.099 0 001.302 4.09q2.375 6.056 6.77 10.45 4.393 4.393 10.33 6.768a33.431 33.431 0 009.575 2.226 40.257 40.257 0 003.488.15 37.207 37.207 0 008.392-.917 31.852 31.852 0 004.67-1.459q5.938-2.375 10.213-6.768a32.312 32.312 0 006.368-9.515 37.064 37.064 0 00.4-.935 33.555 33.555 0 002.434-10.981 39.35 39.35 0 00.06-2.2q0-7.6-2.493-13.776a32.717 32.717 0 00-3.927-7.132 28.588 28.588 0 00-2.842-3.318 29.92 29.92 0 00-9.843-6.5 34.134 34.134 0 00-.37-.15 33.431 33.431 0 00-9.574-2.226 40.257 40.257 0 00-3.488-.149 36.85 36.85 0 00-11.115 1.606 30.138 30.138 0 00-12.279 7.42 30.112 30.112 0 00-8.489 16.531 43.26 43.26 0 00-.655 7.693z" fill="url(#prefix__prefix__c)" filter="drop-shadow(0 -.5em .25em #fff8) drop-shadow(0 .5em .25em #0008)"/></svg>